<svg viewBox="0 0 1100 1100" fill="none" xmlns="http://www.w3.org/2000/svg">
<rect width="1099.48" height="1099.48" fill="black"/>
<path d="M52.7119 374.676L52.7119 550.581L561.451 550.581C308.489 545.843 104.323 429.362 52.7119 374.676Z" fill="#6E9AFD"/>
<path d="M561.451 52.4254L561.451 176.083C457.188 137.406 366.099 167.782 309.88 226.909C378.724 302.781 392.437 423.664 308.176 508.064C223.407 422.818 238.672 301.801 309.88 226.909C253.389 164.652 159.776 132.702 52.7119 176.083L52.7119 52.4254L561.451 52.4254Z" fill="#F7F1E2"/>
<path d="M899.024 550.471H600.86L600.86 1046.07H656.583C612.721 746.814 827.171 591.282 899.024 550.471Z" fill="#F7F1E2"/>
<path d="M745.378 1046.07L1043.54 1046.07L1043.54 550.47L987.819 550.47C1031.68 849.728 817.23 1005.26 745.378 1046.07Z" fill="#F7F1E2"/>
<path d="M819.465 739.88C900.666 739.88 961.612 799.186 961.612 799.186C961.612 799.186 904.68 856.3 819.465 856.3C734.249 856.3 681.879 799.186 681.879 799.186C681.879 799.186 738.264 739.88 819.465 739.88Z" fill="#6E9AFD"/>
<path d="M55.4795 913.845H271.523L299.15 791.162L294.73 790.057L291.967 796.136C270.418 847.53 258.815 865.767 249.422 865.767L107.418 865.214V864.109C203.008 793.926 251.632 764.084 251.632 713.242C251.632 673.453 217.374 642.506 170.961 642.506C119.574 642.506 81.449 675.111 57.6897 727.611L61.5575 729.268C78.6863 696.111 100.788 682.295 131.73 682.295C164.33 682.295 190.3 706.611 190.3 741.979C190.3 791.162 159.357 817.688 52.7168 898.924L55.4795 913.845Z" fill="#FFC738"/>
<path d="M385.748 1024.92C466.419 1024.92 527.752 963.581 527.752 899.477C527.752 846.425 490.731 801.662 424.426 800.004V799.452C463.657 779.557 503.992 756.9 503.992 712.137C503.992 673.453 471.393 642.506 421.664 642.506C370.83 642.506 333.809 675.111 312.813 727.058L316.681 728.716C331.047 696.111 354.806 682.295 385.196 682.295C420.006 682.295 444.318 706.611 444.318 743.084C444.318 787.847 409.508 804.978 339.335 844.767L340.993 849.741C355.911 843.109 371.382 838.688 387.959 838.688C436.582 838.688 469.182 875.161 469.182 928.766C469.182 979.055 438.24 1016.63 400.115 1016.63C391.826 1016.63 381.328 1013.87 380.223 1013.32C384.643 981.265 367.515 949.766 338.782 949.766C321.101 949.766 307.84 962.476 307.84 980.16C307.84 1004.48 337.677 1024.92 385.748 1024.92Z" fill="#FFC738"/>
</svg>
