<svg width="48" height="48" viewBox="0 0 48 48" fill="none" xmlns="http://www.w3.org/2000/svg">
<circle cx="24" cy="24" r="24" fill="#3821F5"/>
<path d="M10.3154 37.0907H8.72705C8.72705 34.3636 9.21868 31.7127 10.183 29.2335C10.5612 28.28 10.9961 27.3646 11.5067 26.4682L11.7147 26.1059L12.1307 26.0677C12.9437 26.0105 14.2295 25.8389 15.6855 25.3049C17.8033 24.5421 19.5241 23.3215 20.8099 21.6814C21.812 20.4037 22.5117 18.9352 22.8898 17.2951L21.188 11.2687L22.7953 10.1816L23.2491 10.5249C24.2891 11.3068 25.3858 12.0506 26.5204 12.6799C27.2389 13.0995 27.9953 13.4809 28.7516 13.8242C30.2076 13.767 31.6825 13.6144 33.1196 13.4046C34.9159 13.1376 36.7123 12.7753 38.4708 12.2985L39.1893 12.1078L39.4352 12.8325C39.8701 14.1675 40.0592 15.5406 39.9835 16.9328C39.9268 18.2486 39.6242 19.5264 39.1137 20.7279L37.6577 20.0985C38.0926 19.0687 38.3384 17.9626 38.3952 16.8374C38.4519 15.9029 38.3573 14.9684 38.1304 14.053C36.561 14.4535 34.9537 14.7777 33.3465 15.0066C31.7959 15.2354 30.2076 15.3689 28.6192 15.4452H28.4302L28.26 15.3689C27.4091 14.9684 26.5582 14.5489 25.7262 14.0721C24.8564 13.5763 23.9866 13.0232 23.1546 12.432L24.5538 17.257L24.516 17.4477C24.0811 19.412 23.268 21.1665 22.0768 22.6731C20.6019 24.5611 18.6353 25.9342 16.2339 26.8115C14.8346 27.3073 13.5866 27.5362 12.679 27.6315C12.3008 28.3372 11.9605 29.0809 11.6579 29.8247C10.7692 32.1132 10.3154 34.5543 10.3154 37.0907Z" fill="white"/>
<path d="M14.5512 37.0911V36.7669C14.5512 35.9659 14.7592 35.3556 15.1563 34.9742C15.7803 34.4021 16.7069 34.4402 16.7636 34.4402H16.7825H28.1846H28.2224H28.2791C28.3358 34.4402 29.0922 34.383 29.6406 34.8979C30.1133 35.3365 30.3591 36.0612 30.3591 37.0911H31.9475C31.9475 35.5845 31.5125 34.4402 30.6806 33.6774C29.6784 32.781 28.4493 32.8192 28.1468 32.8383H16.877C16.5934 32.8192 15.1752 32.8001 14.0974 33.7727C13.3411 34.4593 12.9629 35.47 12.9629 36.7478V37.072H14.5512V37.0911Z" fill="white"/>
<path d="M33.3089 25.6867C34.3678 29.3484 34.8594 33.1816 34.8027 37.0912H36.391C36.4477 33.029 35.9183 29.0432 34.8405 25.229C34.6136 24.4471 34.3677 23.6652 34.0841 22.9024L37.4877 24.3136L38.0928 22.8261L33.4034 20.8809L32.1743 22.3493L32.3445 22.788C32.7038 23.7415 33.0252 24.7141 33.3089 25.6867Z" fill="white"/>
</svg>
